<svg width="129" height="116" viewBox="0 0 129 116" fill="none" xmlns="http://www.w3.org/2000/svg">
<path d="M0 10.2736V20.5469H22.8668H45.7336V10.2736V0.000226329H22.8668H0V10.2736Z" fill="#2B2B2B"/>
<path d="M86.2495 33.6349V67.2695H106.554C122.524 67.2555 126.799 67.2273 126.605 67.0866C126.486 66.9881 117.369 59.4449 106.375 50.3115L86.3538 33.7053L99.2248 33.6209C111.634 33.5505 112.14 33.5364 113.362 33.255C117.846 32.2136 121.317 30.0885 123.924 26.8095C125.011 25.4585 126.382 22.7565 126.859 21.0396C127.395 19.1397 127.529 15.7622 127.157 13.8623C125.935 7.72646 121.451 2.78682 115.328 0.844741C112.662 0.000358377 112.587 0.000358377 98.8225 0.000358377H86.2495V33.6349Z" fill="#2B2B2B"/>
<path d="M0 50.4522V67.2695H7.67193H15.3439V50.4522V33.6349H7.67193H0V50.4522Z" fill="#2B2B2B"/>
<path d="M30.2397 50.4522V67.2695H37.9862H45.7326V50.4522V33.6349H37.9862H30.2397V50.4522Z" fill="#2B2B2B"/>
<path d="M45.7329 16.8507V33.668L56.738 24.5205L64.3913 18.1876L74.9496 9.42715L86.5133 0.0333818H53.4793H45.7329V16.8507Z" fill="#2B2B2B"/>
<path d="M45.7329 50.5224V33.7051L56.738 42.8526L64.3913 49.1854L74.9496 57.9459L86.5133 67.3397H53.4793H45.7329V50.5224Z" fill="#2B2B2B"/>
<path d="M0 84.0867V85.8459L5.10966 85.874L10.2044 85.9162L10.2491 94.8808L10.2789 103.859H12.5134H14.748V94.8526V85.8459H19.8129H24.8779V84.0867V82.3276H12.439H0V84.0867Z" fill="#2B2B2B"/>
<path d="M31.5099 85.0296C30.7502 86.5214 28.2475 91.3484 25.9385 95.7533C23.6444 100.158 21.7524 103.789 21.7524 103.803C21.7524 103.831 22.8101 103.859 24.1062 103.859H26.4599L27.6516 101.425L28.8434 99.0042L35.4576 98.962L42.0868 98.9338L43.2636 101.397L44.4405 103.859H46.8091H49.1628L48.8202 103.184C48.6265 102.818 46.1239 97.9768 43.2785 92.418L38.0944 82.3276H35.5023H32.9103L31.5099 85.0296ZM37.9007 90.4478C39.1819 93.0231 40.2247 95.1622 40.2247 95.2045C40.2247 95.2467 38.1093 95.2748 35.5321 95.2748C32.955 95.2748 30.8396 95.2326 30.8396 95.1622C30.8396 95.0215 35.4874 85.6911 35.547 85.7333C35.5619 85.7614 36.6345 87.8865 37.9007 90.4478Z" fill="#2B2B2B"/>
<path d="M52.1436 93.0935V103.859H54.3781H56.6126V100.482V97.1043L59.0259 95.2045C61.335 93.4031 61.469 93.3187 61.6776 93.572C61.7968 93.7268 63.9121 96.0911 66.3701 98.8494L70.8392 103.859H73.7143C75.3083 103.859 76.5746 103.803 76.5448 103.747C76.5299 103.676 73.8931 100.791 70.6903 97.3295C67.5023 93.8534 64.8804 90.9403 64.8804 90.8418C64.8804 90.7433 67.1299 88.9138 69.8709 86.7606C72.612 84.6074 74.9955 82.7357 75.1593 82.595C75.4424 82.3276 75.3828 82.3276 72.2991 82.3276H69.141L62.9587 87.2532C59.5473 89.9552 56.7318 92.1787 56.6871 92.1787C56.6424 92.1787 56.6126 89.9552 56.6126 87.2532V82.3276H54.3781H52.1436V93.0935Z" fill="#2B2B2B"/>
<path d="M79.9985 93.0935V103.859H90.4264H100.854V102.03V100.2H92.6609H84.4676V97.3858V94.5712H91.3947H98.3218V92.7417V90.9122H91.3947H84.4676L84.4974 88.4072L84.5421 85.9162L92.5567 85.874L100.556 85.8459V84.0867V82.3276H90.2774H79.9985V93.0935Z" fill="#2B2B2B"/>
<path d="M104.431 93.0794V103.859H106.665H108.9V99.6375V95.4155L112.505 95.4437L116.125 95.4859L119.387 99.6656L122.665 103.859H125.406C127.655 103.859 128.117 103.831 128.013 103.662C127.953 103.564 126.404 101.608 124.586 99.3419C122.754 97.0621 121.264 95.1622 121.264 95.1059C121.264 95.0637 121.607 94.9934 122.039 94.9511C122.456 94.8948 123.305 94.6415 123.901 94.3741C126.255 93.3187 127.521 91.2921 127.521 88.5901C127.521 86.0288 126.389 84.1149 124.348 83.2424C122.426 82.412 122.53 82.412 113.116 82.3558L104.431 82.3135V93.0794ZM119.372 85.8459C121.115 86.0007 121.964 86.3244 122.545 87.0562C122.948 87.5487 122.977 87.6754 122.977 88.8012C122.977 89.9271 122.948 90.0537 122.545 90.5463C121.607 91.7143 120.207 91.9254 113.592 91.8691L108.974 91.8269L108.93 88.9419C108.915 87.3658 108.93 85.9866 108.959 85.8881C109.064 85.6629 117.063 85.6348 119.372 85.8459Z" fill="#2B2B2B"/>
<path d="M24.581 110.782C23.8361 110.979 23.27 111.401 22.9423 112.02C22.6146 112.625 22.555 113.737 22.8082 114.37C23.0317 114.933 23.8063 115.651 24.4022 115.834C25.0726 116.045 26.6218 116.045 27.2922 115.834C27.8881 115.651 28.6627 114.933 28.8862 114.37C29.3182 113.301 28.9011 111.781 28.052 111.204C27.2326 110.655 25.728 110.472 24.581 110.782ZM26.6814 111.598C27.4561 111.809 27.8881 112.302 27.9775 113.118C28.0966 114.427 27.3667 115.116 25.8472 115.116C24.3277 115.116 23.5978 114.427 23.7169 113.118C23.851 111.823 25.0875 111.176 26.6814 111.598Z" fill="#2B2B2B"/>
<path d="M41.7447 110.827C40.9402 111.067 40.5529 111.376 40.2103 112.094C39.8676 112.784 39.8527 113.684 40.1507 114.374C40.6423 115.5 41.551 115.992 43.0705 115.992C44.6198 115.992 45.6179 115.457 45.9456 114.444C46.0499 114.163 46.0052 114.135 45.5285 114.135C45.1412 114.135 44.9326 114.219 44.7687 114.472C44.4261 114.951 43.7855 115.162 42.8321 115.092C41.5659 114.993 40.8359 114.135 41.0445 112.995C41.3126 111.503 43.5621 110.954 44.6943 112.094C45.1263 112.53 45.886 112.587 45.886 112.178C45.886 111.756 44.9773 110.954 44.3218 110.771C43.5472 110.574 42.5342 110.588 41.7447 110.827Z" fill="#2B2B2B"/>
<path d="M48.7875 110.824C47.1339 111.373 46.4188 113.441 47.4169 114.863C48.4746 116.369 51.9307 116.369 52.9884 114.863C54.0014 113.413 53.1821 111.218 51.4689 110.768C50.6645 110.556 49.5174 110.585 48.7875 110.824ZM51.2306 111.682C52.2286 112.048 52.6607 113.076 52.2286 114.033C51.9158 114.75 51.2306 115.116 50.2027 115.116C49.1748 115.116 48.4895 114.75 48.1767 114.033C47.7596 113.09 48.132 112.147 49.0854 111.725C49.8153 111.401 50.4708 111.387 51.2306 111.682Z" fill="#2B2B2B"/>
<path d="M63.0883 110.813C62.7606 110.94 62.3733 111.165 62.2392 111.334C61.971 111.629 61.8817 112.361 62.0604 112.797C62.2094 113.163 63.1479 113.529 64.4141 113.712C66.0081 113.937 66.2912 114.05 66.2912 114.458C66.2912 114.894 65.7698 115.119 64.7121 115.119C63.8481 115.119 63.4458 114.993 62.9245 114.528C62.6414 114.289 62.552 114.275 62.12 114.444L61.6284 114.627L62.0306 115.077C62.552 115.668 63.4756 115.992 64.6674 115.992C66.4401 116.006 67.4084 115.457 67.4084 114.416C67.4084 113.417 66.7679 113.051 64.429 112.713C63.3714 112.572 63.0138 112.403 63.0138 112.08C63.0138 111.292 65.5016 111.249 66.1422 112.037C66.3359 112.277 66.4401 112.291 66.8424 112.15C67.2744 112.009 67.3042 111.981 67.1403 111.643C66.753 110.827 64.429 110.349 63.0883 110.813Z" fill="#2B2B2B"/>
<path d="M116.302 110.811C115.14 111.219 114.559 112.049 114.559 113.274C114.559 114.16 114.753 114.653 115.334 115.216C115.915 115.793 116.615 116.018 117.762 115.99C119.147 115.976 119.952 115.568 120.458 114.667C120.741 114.146 120.741 114.132 120.16 114.132C119.773 114.132 119.52 114.259 119.132 114.625C118.656 115.075 118.537 115.117 117.762 115.117C117.226 115.117 116.749 115.033 116.481 114.878C116.004 114.611 115.602 113.921 115.602 113.372C115.602 112.823 115.974 112.078 116.377 111.824C117.241 111.289 118.745 111.43 119.311 112.106C119.609 112.458 120.518 112.598 120.518 112.289C120.518 111.923 119.877 111.191 119.371 110.966C118.626 110.628 117.032 110.558 116.302 110.811Z" fill="#2B2B2B"/>
<path d="M2.68145 112.624C2.68145 114.96 2.62186 115.058 1.02789 115.03C0 115.016 0 115.016 0 115.396C0 115.86 0.208557 115.959 1.23645 115.959C2.4282 115.959 3.09857 115.734 3.4263 115.213C3.67955 114.819 3.72424 114.495 3.72424 112.75V110.752H3.20285H2.68145V112.624Z" fill="#2B2B2B"/>
<path d="M5.39211 112.71C5.4368 114.934 5.57087 115.244 6.61366 115.736C7.3734 116.088 9.16104 116.088 9.92078 115.736C10.9636 115.244 11.0976 114.934 11.1423 112.71L11.2019 110.754H10.6805H10.1591L10.0995 112.598C10.0549 114.413 10.0549 114.441 9.63774 114.779C9.29511 115.061 9.05676 115.117 8.26722 115.117C7.47768 115.117 7.23933 115.061 6.8967 114.779C6.47958 114.441 6.47958 114.413 6.43489 112.598L6.37531 110.754H5.85391H5.33252L5.39211 112.71Z" fill="#2B2B2B"/>
<path d="M12.8115 113.371V115.975L13.3031 115.932L13.7798 115.89L13.8543 114.033L13.9288 112.175L15.776 114.075C17.4594 115.806 17.6679 115.975 18.085 115.932L18.5469 115.89L18.5915 113.315L18.6213 110.754H18.0999H17.5785V112.513C17.5785 113.484 17.519 114.272 17.4445 114.272C17.3849 114.272 16.5507 113.484 15.627 112.513C14.0331 110.866 13.899 110.754 13.3776 110.754H12.8115V113.371Z" fill="#2B2B2B"/>
<path d="M20.2642 113.355V115.959H20.7856H21.3069V113.355V110.752H20.7856H20.2642V113.355Z" fill="#2B2B2B"/>
<path d="M30.3911 113.341V115.959H30.9125H31.4339V114.904V113.848H32.2532H33.0577L33.8919 114.904C34.6814 115.917 34.741 115.959 35.3071 115.959C35.6348 115.959 35.903 115.917 35.903 115.86C35.903 115.818 35.7391 115.565 35.5306 115.298C35.322 115.044 34.9794 114.608 34.7708 114.341L34.3835 113.862L34.9347 113.651C35.9775 113.229 36.1711 111.765 35.2624 111.118C34.89 110.85 34.5921 110.822 32.6108 110.78L30.3911 110.738V113.341ZM34.4282 111.737C34.7559 111.906 34.8155 112.567 34.5325 112.835C34.4133 112.947 33.8323 113.004 32.8938 113.004H31.4339V112.3V111.596H32.7895C33.5344 111.596 34.2643 111.667 34.4282 111.737Z" fill="#2B2B2B"/>
<path d="M54.6699 113.357V115.961H55.1913H55.6978L55.7425 114.047L55.7872 112.119L57.6493 114.004C59.2135 115.595 59.5859 115.89 59.9881 115.932L60.4797 115.975V113.371V110.754H59.9583H59.4518L59.4072 112.555L59.3625 114.356L57.5897 112.555C55.9064 110.838 55.8021 110.754 55.2509 110.754H54.6699V113.357Z" fill="#2B2B2B"/>
<path d="M68.6714 113.355V115.959H71.1294H73.5874V115.466V114.974H71.6508H69.7142V114.341V113.707H71.3528H72.9915V113.285V112.863H71.3528H69.7142V112.23V111.596H71.6508H73.5874V111.174V110.752H71.1294H68.6714V113.355Z" fill="#2B2B2B"/>
<path d="M74.815 113.315L74.8596 115.891H75.381H75.9024L75.9471 113.315L75.9769 110.754H75.381H74.7852L74.815 113.315Z" fill="#2B2B2B"/>
<path d="M77.6123 113.355V115.959H80.0703H82.5283V115.466V114.974H80.5917H78.6551V112.863V110.752H78.1337H77.6123V113.355Z" fill="#2B2B2B"/>
<path d="M86.7041 113.355V115.959L89.2068 115.931L91.6946 115.889V115.466V115.044L89.7282 115.002L87.7469 114.96V114.341V113.707H89.46H91.1732V113.285V112.877L89.5047 112.835L87.8214 112.793L87.7767 112.187L87.732 111.596H89.6686H91.6201V111.174V110.752H89.1621H86.7041V113.355Z" fill="#2B2B2B"/>
<path d="M92.8364 113.315L92.8811 115.891H93.4025H93.9239L93.9686 114.863L94.0133 113.85H95.5775C97.7375 113.85 98.3185 113.54 98.3185 112.386C98.3185 110.993 97.7971 110.754 94.8922 110.754H92.8066L92.8364 113.315ZM97.0374 111.824C97.3204 112.077 97.3502 112.598 97.097 112.837C96.9778 112.949 96.3968 113.006 95.4583 113.006H93.9984V112.302V111.598H95.3987C96.4862 111.598 96.8586 111.655 97.0374 111.824Z" fill="#2B2B2B"/>
<path d="M99.5098 113.355V115.959H100.031H100.553V113.355V110.752H100.031H99.5098V113.355Z" fill="#2B2B2B"/>
<path d="M101.747 111.176V111.598H102.939H104.116L104.16 113.737L104.205 115.89L104.697 115.932L105.173 115.975V113.793V111.598H106.44H107.706V111.176V110.754H104.726H101.747V111.176Z" fill="#2B2B2B"/>
<path d="M108.746 113.355V115.959L111.249 115.931L113.737 115.889V115.466V115.044L111.77 115.002L109.789 114.96V114.341V113.707H111.428H113.066V113.285V112.877L111.472 112.835L109.863 112.793L109.819 112.187L109.774 111.596H111.711H113.662V111.174V110.752H111.204H108.746V113.355Z" fill="#2B2B2B"/>
<path d="M121.889 113.315L121.933 115.89L122.425 115.932L122.902 115.975V114.849V113.709H124.764H126.626V114.835V115.961H127.147H127.669V113.357V110.754H127.147H126.626V111.739V112.724H124.764H122.902V111.739V110.754H122.38H121.859L121.889 113.315Z" fill="#2B2B2B"/>
</svg>
